<?xml version="1.0" encoding="utf-8"?>
<svg viewBox="93.393 168.198 272.334 239.979" xmlns="http://www.w3.org/2000/svg">
  <g id="Outline" transform="matrix(1, 0, 0, 1, -23.440792, -194.959839)">
    <polygon fill="#1D1D1D" points="386.667,545.938 119.333,600.667 119.568,390.429 386.667,365.667 &#9;&#9;&#9;&#9;"/>
    <g>
      <path d="M386.002,543.527c-42.926,8.788-85.851,17.576-128.777,26.363c-46.029,9.424-92.058,18.847-138.087,28.27 c-0.156,0.032-0.313,0.064-0.469,0.096c1.055,0.804,2.11,1.607,3.165,2.411c0.054-48.683,0.109-97.364,0.163-146.047 c0.024-21.396,0.048-42.794,0.072-64.191c-0.833,0.833-1.667,1.667-2.5,2.5c44.02-4.081,88.039-8.162,132.058-12.243 c44.999-4.172,89.998-8.344,134.997-12.516c0.015-0.001,0.029-0.002,0.044-0.004c-0.833-0.833-1.667-1.667-2.5-2.5 c0,49.878,0,99.756,0,149.634c0,10.213,0,20.425,0,30.638c0,3.225,5,3.225,5,0c0-49.878,0-99.756,0-149.634 c0-10.213,0-20.426,0-30.638c0-1.268-1.141-2.626-2.5-2.5c-44.02,4.081-88.039,8.162-132.058,12.243 c-44.999,4.172-89.998,8.344-134.997,12.516c-0.015,0.001-0.029,0.002-0.044,0.004c-1.357,0.126-2.499,1.042-2.5,2.5 c-0.054,48.683-0.109,97.364-0.163,146.047c-0.024,21.396-0.048,42.794-0.072,64.191c-0.002,1.707,1.59,2.733,3.165,2.411 c42.926-8.788,85.852-17.576,128.777-26.363c46.029-9.424,92.058-18.847,138.087-28.27c0.156-0.032,0.313-0.064,0.47-0.096 C390.489,547.703,389.149,542.884,386.002,543.527z"/>
    </g>
  </g>
  <g id="Screen_1_" transform="matrix(1, 0, 0, 1, -23.440792, -194.959839)">
    <polygon points="375.778,534.245 133.943,581.676 134.129,405.055 375.786,380.578 &#9;&#9;&#9;&#9;"/>
  </g>
  <g id="Hacker_Text" transform="matrix(1, 0, 0, 1, -23.440792, -194.959839)">
    <g>
      <g>
        <path fill="#00FF00" d="M141.575,415.928c7.792-0.832,15.584-1.663,23.377-2.495c1.903-0.203,1.923-3.205,0-3 c-7.792,0.832-15.584,1.663-23.377,2.495C139.672,413.131,139.652,416.133,141.575,415.928L141.575,415.928z"/>
      </g>
    </g>
    <g>
      <g>
        <path fill="#00FF00" d="M141.567,423.524c15.542-1.724,31.085-3.446,46.628-5.17c1.901-0.211,1.921-3.213,0-3 c-15.542,1.724-31.085,3.446-46.628,5.17C139.667,420.735,139.646,423.737,141.567,423.524L141.567,423.524z"/>
      </g>
    </g>
    <g>
      <g>
        <path fill="#00FF00" d="M141.559,431.12c5.492-0.631,10.983-1.262,16.475-1.893c1.899-0.218,1.92-3.221,0-3 c-5.492,0.631-10.983,1.262-16.475,1.893C139.66,428.338,139.639,431.341,141.559,431.12L141.559,431.12z"/>
      </g>
    </g>
    <g>
      <g>
        <path fill="#00FF00" d="M141.551,438.718c12.192-1.451,24.383-2.901,36.575-4.353c1.896-0.226,1.918-3.229,0-3 c-12.192,1.451-24.383,2.901-36.575,4.353C139.655,435.943,139.633,438.946,141.551,438.718L141.551,438.718z"/>
      </g>
    </g>
    <g>
      <g>
        <path fill="#00FF00" d="M141.539,451.743c14.229-1.793,28.457-3.586,42.686-5.379c1.893-0.238,1.916-3.241,0-3 c-14.229,1.793-28.457,3.586-42.686,5.379C139.646,448.981,139.623,451.984,141.539,451.743L141.539,451.743z"/>
      </g>
    </g>
    <g>
      <g>
        <path fill="#00FF00" d="M141.531,459.343c11.191-1.457,22.383-2.914,33.574-4.371c1.89-0.246,1.915-3.249,0-3 c-11.191,1.457-22.383,2.914-33.574,4.371C139.641,456.589,139.617,459.592,141.531,459.343L141.531,459.343z"/>
      </g>
    </g>
    <g>
      <g>
        <path fill="#00FF00" d="M141.523,466.941c8.104-1.088,16.209-2.175,24.314-3.263c1.888-0.253,1.913-3.257,0-3 c-8.104,1.088-16.209,2.175-24.314,3.263C139.635,464.194,139.611,467.198,141.523,466.941L141.523,466.941z"/>
      </g>
    </g>
    <g>
      <g>
        <path fill="#00FF00" d="M141.915,474.488c16.706-2.312,33.412-4.623,50.118-6.935c1.909-0.264,1.093-3.154-0.798-2.893 c-16.706,2.312-33.412,4.623-50.118,6.935C139.208,471.859,140.023,474.75,141.915,474.488L141.915,474.488z"/>
      </g>
    </g>
    <g>
      <g>
        <path fill="#00FF00" d="M141.906,482.269c12.806-1.825,25.612-3.651,38.419-5.477c1.909-0.272,1.094-3.162-0.798-2.893 c-12.806,1.825-25.612,3.651-38.419,5.477C139.2,479.648,140.015,482.538,141.906,482.269L141.906,482.269z"/>
      </g>
    </g>
    <g>
      <g>
        <path fill="#00FF00" d="M141.898,489.869c10.272-1.506,20.545-3.013,30.818-4.519c1.908-0.279,1.094-3.17-0.798-2.893 c-10.272,1.506-20.545,3.013-30.818,4.519C139.192,487.256,140.006,490.146,141.898,489.869L141.898,489.869z"/>
      </g>
    </g>
    <g>
      <g>
        <path fill="#00FF00" d="M141.887,500.909c6.705-1.023,13.41-2.046,20.115-3.069c1.907-0.291,1.094-3.182-0.798-2.893 c-6.705,1.023-13.41,2.046-20.115,3.069C139.182,498.308,139.995,501.198,141.887,500.909L141.887,500.909z"/>
      </g>
    </g>
    <g>
      <g>
        <path fill="#00FF00" d="M141.879,508.513c16.003-2.508,32.006-5.017,48.01-7.524c1.907-0.299,1.094-3.189-0.798-2.893 c-16.003,2.508-32.006,5.017-48.01,7.524C139.174,505.919,139.987,508.81,141.879,508.513L141.879,508.513z"/>
      </g>
    </g>
    <g>
      <g>
        <path fill="#00FF00" d="M141.871,516.114c23.256-3.739,46.512-7.479,69.769-11.219c1.906-0.307,1.094-3.197-0.798-2.893 c-23.256,3.739-46.512,7.479-69.769,11.219C139.167,513.528,139.979,516.419,141.871,516.114L141.871,516.114z"/>
      </g>
    </g>
    <g>
      <g>
        <path fill="#00FF00" d="M141.86,527.156c6.706-1.118,13.412-2.236,20.118-3.354c1.905-0.317,1.094-3.208-0.798-2.893 c-6.706,1.118-13.412,2.236-20.118,3.354C139.157,524.581,139.968,527.472,141.86,527.156L141.86,527.156z"/>
      </g>
    </g>
    <g>
      <g>
        <path fill="#00FF00" d="M141.852,534.761c10.737-1.834,21.475-3.669,32.212-5.503c1.904-0.325,1.094-3.216-0.798-2.893 c-10.737,1.834-21.475,3.669-32.212,5.503C139.15,532.193,139.96,535.084,141.852,534.761L141.852,534.761z"/>
      </g>
    </g>
    <g>
      <g>
        <path fill="#00FF00" d="M141.844,542.364c8.47-1.481,16.94-2.964,25.411-4.445c1.903-0.333,1.094-3.224-0.798-2.893 c-8.47,1.481-16.94,2.964-25.411,4.445C139.144,539.805,139.953,542.695,141.844,542.364L141.844,542.364z"/>
      </g>
    </g>
    <g>
      <g>
        <path fill="#00FF00" d="M141.836,549.97c5.181-0.928,10.361-1.854,15.542-2.782c1.902-0.341,1.094-3.231-0.798-2.893 c-5.181,0.928-10.361,1.854-15.542,2.782C139.137,547.418,139.945,550.309,141.836,549.97L141.836,549.97z"/>
      </g>
    </g>
    <g>
      <g>
        <path fill="#00FF00" d="M141.822,563.912c5.495-1.025,10.99-2.05,16.485-3.075c1.9-0.354,1.093-3.245-0.798-2.893 c-5.495,1.025-10.99,2.05-16.485,3.075C139.124,561.374,139.931,564.265,141.822,563.912L141.822,563.912z"/>
      </g>
    </g>
    <g>
      <g>
        <path fill="#00FF00" d="M163.149,428.639c16.419-1.887,32.839-3.773,49.259-5.66c1.899-0.218,1.92-3.221,0-3 c-16.419,1.887-32.839,3.773-49.259,5.66C161.25,425.856,161.229,428.859,163.149,428.639L163.149,428.639z"/>
      </g>
    </g>
    <g>
      <g>
        <path fill="#00FF00" d="M170.278,412.862c3.235-0.345,6.47-0.689,9.705-1.034c1.903-0.203,1.923-3.205,0-3 c-3.235,0.345-6.47,0.689-9.705,1.034C168.375,410.065,168.355,413.067,170.278,412.862L170.278,412.862z"/>
      </g>
    </g>
    <g>
      <g>
        <path fill="#00FF00" d="M167.137,497.056c16.36-2.496,32.721-4.993,49.081-7.489c1.907-0.291,1.094-3.182-0.798-2.893 c-16.36,2.496-32.721,4.993-49.081,7.489C164.432,494.454,165.245,497.345,167.137,497.056L167.137,497.056z"/>
      </g>
    </g>
    <g>
      <g>
        <path fill="#00FF00" d="M178.367,484.522c7.007-1.027,14.014-2.056,21.021-3.083c1.908-0.279,1.094-3.17-0.798-2.893 c-7.007,1.027-14.014,2.056-21.021,3.083C175.661,481.909,176.476,484.8,178.367,484.522L178.367,484.522z"/>
      </g>
    </g>
    <g>
      <g>
        <path fill="#00FF00" d="M180.023,454.333c14.89-1.938,29.78-3.876,44.67-5.814c1.89-0.246,1.915-3.249,0-3 c-14.89,1.938-29.78,3.876-44.67,5.814C178.133,451.579,178.108,454.582,180.023,454.333L180.023,454.333z"/>
      </g>
    </g>
    <g>
      <g>
        <path fill="#00FF00" d="M162.893,546.199c26.621-4.767,53.242-9.532,79.863-14.299c1.902-0.341,1.094-3.231-0.798-2.893 c-26.621,4.767-53.242,9.532-79.863,14.299C160.193,543.647,161.001,546.538,162.893,546.199L162.893,546.199z"/>
      </g>
    </g>
  </g>
</svg>